# xmcd
#
# Track frame offsets:
#	150
#	17885
#	36179
#	51917
#	69979
#	81677
#	97502
#	113344
#	129453
#	147826
#	165828
#
# Disc length: 2382 seconds
#
# Revision: 1
# Processed by: cddbd v1.5.2PL0 Copyright (c) Steve Scherf et al.
# Submitted via: audiograbber 1.83.01
#
DISCID=83094c0b
DTITLE=Michelle Wright - Do Right By Me
DYEAR=2009
DGENRE=Country
TTITLE0=The Rhythm of Romance
TTITLE1=Do Right By Me
TTITLE2=I Want to Count on You
TTITLE3=I Wish I Were Only Lonely
TTITLE4=A Good Man is Hard to Find
TTITLE5=Rock Me Gently
TTITLE6=New Fool at an Old Game
TTITLE7=With a Love Like Yours
TTITLE8=I Don't Want to Wonder
TTITLE9=Reaching for the Stars
TTITLE10=None of the Feeling is Gone 
EXTD=
EXTT0=
EXTT1=
EXTT2=
EXTT3=
EXTT4=
EXTT5=
EXTT6=
EXTT7=
EXTT8=
EXTT9=
EXTT10=(duet with Terry Carisse)
PLAYORDER=
